# xmcd
#
# Track frame offsets: 
#        182
#        14657
#        24940
#        38317
#        52837
#        65070
#        77932
#        98050
#        115457
#        130287
#        138875
#        152057
#        162832
#        179012
#        194807
#        211157
#
# Disc length: 2993 seconds
#
# Revision: 4
# Processed by: cddbd v1.5.1PL0 Copyright (c) Steve Scherf et al.
# Submitted via: ExactAudioCopy v0.95a5
#
DISCID=da0baf10
DTITLE=Various Artist - California Dreaming
DYEAR=2001
DGENRE=Pop
TTITLE0=Beach Boys - California Dreamin'
TTITLE1=Byrds - Mr. Tambourine Man
TTITLE2=Scott McKenzie - San Francisco (Be Sure to Wear Some Flowers i
TTITLE2=n Your Hair)
TTITLE3=Mamas and Papas - Dream a Little Dream of Me
TTITLE4=Harry Nilsson - Everybody's Talkin'
TTITLE5=Edison Lighthouse - Love Grows (where My Rosemary Goes)
TTITLE6=Matthews Southern Comfort - Woodstock
TTITLE7=Albert Hammond - It never Rains in Southern California
TTITLE8=Zager and Evans - In the Year 2525 (Exordium and Terminus)
TTITLE9=Box Tops - The Letter
TTITLE10=Vanity Fare - Hitchin' a Ride
TTITLE11=Lemon Pipers - Green Tambourine
TTITLE12=Barry McGuire - Eve of Destruction
TTITLE13=Joe South - Games People Play
TTITLE14=Flowerpot Men - Let's Go to San Francisco
TTITLE15=Troggs - Love is all around
EXTD=YEAR: 2001
EXTT0=
EXTT1=
EXTT2=
EXTT3=
EXTT4=
EXTT5=
EXTT6=
EXTT7=
EXTT8=
EXTT9=
EXTT10=
EXTT11=
EXTT12=
EXTT13=
EXTT14=
EXTT15=
PLAYORDER=
